<svg xmlns="http://www.w3.org/2000/svg" viewBox="0 0 1200 675" fill="none">
  <defs>
    <linearGradient id="bg" x1="0" y1="0" x2="0" y2="1">
      <stop offset="0%" stop-color="#0f1629"/>
      <stop offset="100%" stop-color="#1a2744"/>
    </linearGradient>
  </defs>
  <rect width="1200" height="675" fill="url(#bg)"/>
  <text x="600" y="52" text-anchor="middle" fill="#e2e8f0" font-family="system-ui,sans-serif" font-size="28" font-weight="700">Global Electricity Generation Mix 2024</text>
  <text x="600" y="82" text-anchor="middle" fill="#94a3b8" font-family="system-ui,sans-serif" font-size="16">21 major economies · 30.9 PWh · Our World in Data</text>

  <!-- World stacked bar -->
  <text x="80" y="130" fill="#cbd5e1" font-family="system-ui,sans-serif" font-size="14">World</text>
  <rect x="160" y="116" width="920" height="22" rx="4" fill="#1e293b"/>
  <rect x="160" y="116" width="316" height="22" rx="4 0 0 4" fill="#374151"/>
  <rect x="476" y="116" width="203" height="22" fill="#f59e0b"/>
  <rect x="679" y="116" width="26" height="22" fill="#92400e"/>
  <rect x="705" y="116" width="132" height="22" fill="#0284c7"/>
  <rect x="837" y="116" width="82" height="22" fill="#7c3aed"/>
  <rect x="919" y="116" width="64" height="22" fill="#facc15"/>
  <rect x="983" y="116" width="75" height="22" rx="0 4 4 0" fill="#22c55e"/>
  <text x="1090" y="132" fill="#94a3b8" font-size="12" font-family="system-ui">30.9 PWh</text>

  <!-- China -->
  <text x="80" y="178" fill="#cbd5e1" font-family="system-ui,sans-serif" font-size="14">China</text>
  <rect x="160" y="164" width="920" height="18" rx="3" fill="#1e293b"/>
  <rect x="160" y="164" width="535" height="18" rx="3 0 0 3" fill="#374151"/>
  <rect x="695" y="164" width="28" height="18" fill="#f59e0b"/>
  <rect x="723" y="164" width="124" height="18" fill="#0284c7"/>
  <rect x="847" y="164" width="41" height="18" fill="#7c3aed"/>
  <rect x="888" y="164" width="76" height="18" fill="#facc15"/>
  <rect x="964" y="164" width="90" height="18" rx="0 3 3 0" fill="#22c55e"/>

  <!-- United States -->
  <text x="80" y="222" fill="#cbd5e1" font-family="system-ui,sans-serif" font-size="14">United States</text>
  <rect x="160" y="208" width="920" height="18" rx="3" fill="#1e293b"/>
  <rect x="160" y="208" width="137" height="18" rx="3 0 0 3" fill="#374151"/>
  <rect x="297" y="208" width="391" height="18" fill="#f59e0b"/>
  <rect x="688" y="208" width="50" height="18" fill="#0284c7"/>
  <rect x="738" y="208" width="164" height="18" fill="#7c3aed"/>
  <rect x="902" y="208" width="64" height="18" fill="#facc15"/>
  <rect x="966" y="208" width="95" height="18" rx="0 3 3 0" fill="#22c55e"/>

  <!-- India -->
  <text x="80" y="266" fill="#cbd5e1" font-family="system-ui,sans-serif" font-size="14">India</text>
  <rect x="160" y="252" width="920" height="18" rx="3" fill="#1e293b"/>
  <rect x="160" y="252" width="686" height="18" rx="3 0 0 3" fill="#374151"/>
  <rect x="846" y="252" width="26" height="18" fill="#f59e0b"/>
  <rect x="872" y="252" width="70" height="18" fill="#0284c7"/>
  <rect x="942" y="252" width="25" height="18" fill="#7c3aed"/>
  <rect x="967" y="252" width="54" height="18" fill="#facc15"/>
  <rect x="1021" y="252" width="33" height="18" rx="0 3 3 0" fill="#22c55e"/>

  <!-- France -->
  <text x="80" y="310" fill="#cbd5e1" font-family="system-ui,sans-serif" font-size="14">France</text>
  <rect x="160" y="296" width="920" height="18" rx="3" fill="#1e293b"/>
  <rect x="160" y="296" width="3" height="18" rx="3 0 0 3" fill="#374151"/>
  <rect x="163" y="296" width="31" height="18" fill="#f59e0b"/>
  <rect x="194" y="296" width="69" height="18" fill="#0284c7"/>
  <rect x="263" y="296" width="379" height="18" fill="#7c3aed"/>
  <rect x="642" y="296" width="24" height="18" fill="#facc15"/>
  <rect x="666" y="296" width="43" height="18" fill="#22c55e"/>
  <rect x="709" y="296" width="371" height="18" rx="0 3 3 0" fill="#1e293b" opacity="0"/>

  <!-- Brazil -->
  <text x="80" y="354" fill="#cbd5e1" font-family="system-ui,sans-serif" font-size="14">Brazil</text>
  <rect x="160" y="340" width="920" height="18" rx="3" fill="#1e293b"/>
  <rect x="160" y="340" width="19" height="18" rx="3 0 0 3" fill="#374151"/>
  <rect x="179" y="340" width="59" height="18" fill="#f59e0b"/>
  <rect x="238" y="340" width="512" height="18" fill="#0284c7"/>
  <rect x="750" y="340" width="19" height="18" fill="#7c3aed"/>
  <rect x="769" y="340" width="92" height="18" fill="#facc15"/>
  <rect x="861" y="340" width="133" height="18" fill="#22c55e"/>
  <rect x="994" y="340" width="86" height="18" rx="0 3 3 0" fill="#1e293b" opacity="0"/>

  <!-- legend -->
  <rect x="80" y="390" width="1040" height="56" rx="8" fill="#1e293b" stroke="#334155"/>
  <rect x="100" y="412" width="14" height="14" rx="2" fill="#374151"/>
  <text x="122" y="424" fill="#e2e8f0" font-size="13" font-family="system-ui">Coal</text>
  <rect x="180" y="412" width="14" height="14" rx="2" fill="#f59e0b"/>
  <text x="202" y="424" fill="#e2e8f0" font-size="13" font-family="system-ui">Gas</text>
  <rect x="250" y="412" width="14" height="14" rx="2" fill="#92400e"/>
  <text x="272" y="424" fill="#e2e8f0" font-size="13" font-family="system-ui">Oil</text>
  <rect x="310" y="412" width="14" height="14" rx="2" fill="#0284c7"/>
  <text x="332" y="424" fill="#e2e8f0" font-size="13" font-family="system-ui">Hydro</text>
  <rect x="390" y="412" width="14" height="14" rx="2" fill="#7c3aed"/>
  <text x="412" y="424" fill="#e2e8f0" font-size="13" font-family="system-ui">Nuclear</text>
  <rect x="480" y="412" width="14" height="14" rx="2" fill="#facc15"/>
  <text x="502" y="424" fill="#e2e8f0" font-size="13" font-family="system-ui">Solar</text>
  <rect x="560" y="412" width="14" height="14" rx="2" fill="#22c55e"/>
  <text x="582" y="424" fill="#e2e8f0" font-size="13" font-family="system-ui">Wind</text>

  <!-- stat callouts -->
  <rect x="80" y="480" width="320" height="80" rx="8" fill="#1e293b" stroke="#374151" stroke-width="1"/>
  <text x="240" y="512" text-anchor="middle" fill="#94a3b8" font-size="12" font-family="system-ui">GLOBAL COAL SHARE</text>
  <text x="240" y="544" text-anchor="middle" fill="#f59e0b" font-size="30" font-weight="700" font-family="system-ui">34.3%</text>

  <rect x="440" y="480" width="320" height="80" rx="8" fill="#1e293b" stroke="#22c55e" stroke-width="1"/>
  <text x="600" y="512" text-anchor="middle" fill="#94a3b8" font-size="12" font-family="system-ui">LOW-CARBON SHARE</text>
  <text x="600" y="544" text-anchor="middle" fill="#22c55e" font-size="30" font-weight="700" font-family="system-ui">40.9%</text>

  <rect x="800" y="480" width="320" height="80" rx="8" fill="#1e293b" stroke="#7c3aed" stroke-width="1"/>
  <text x="960" y="512" text-anchor="middle" fill="#94a3b8" font-size="12" font-family="system-ui">FRANCE NUCLEAR</text>
  <text x="960" y="544" text-anchor="middle" fill="#7c3aed" font-size="30" font-weight="700" font-family="system-ui">68.0%</text>

  <text x="600" y="640" text-anchor="middle" fill="#475569" font-size="11" font-family="system-ui">Source: Our World in Data (Ember &amp; Energy Institute) · 2024 country-level generation shares</text>
</svg>
