<svg xmlns="http://www.w3.org/2000/svg" viewBox="0 0 1200 675" fill="none">
  <rect width="1200" height="675" fill="#0f1629"/>
  <defs>
    <linearGradient id="g1" x1="0" y1="0" x2="0" y2="1">
      <stop offset="0%" stop-color="#f59e0b" stop-opacity="0.35"/>
      <stop offset="100%" stop-color="#f59e0b" stop-opacity="0"/>
    </linearGradient>
    <linearGradient id="g2" x1="0" y1="0" x2="0" y2="1">
      <stop offset="0%" stop-color="#0ea5e9" stop-opacity="0.25"/>
      <stop offset="100%" stop-color="#0ea5e9" stop-opacity="0"/>
    </linearGradient>
  </defs>
  <!-- support area -->
  <path d="M80 520 L180 500 L280 490 L380 480 L480 470 L580 460 L680 455 L780 450 L880 200 L980 180 L1080 420 L1120 520 L80 520 Z" fill="url(#g1)" stroke="#f59e0b" stroke-width="3"/>
  <!-- tariff line -->
  <path d="M80 560 L280 555 L480 545 L680 530 L780 480 L880 420 L980 380 L1080 200 L1120 160" stroke="#0ea5e9" stroke-width="3" fill="none"/>
  <path d="M80 560 L280 555 L480 545 L680 530 L780 480 L880 420 L980 380 L1080 200 L1120 160 L1120 560 L80 560 Z" fill="url(#g2)"/>
  <!-- grid -->
  <g stroke="#1e293b" stroke-width="1">
    <line x1="80" y1="160" x2="1120" y2="160"/>
    <line x1="80" y1="280" x2="1120" y2="280"/>
    <line x1="80" y1="400" x2="1120" y2="400"/>
    <line x1="80" y1="520" x2="1120" y2="520"/>
  </g>
  <text x="80" y="120" fill="#94a3b8" font-family="system-ui,sans-serif" font-size="28" font-weight="600">1996  2025</text>
  <text x="80" y="620" fill="#64748b" font-family="system-ui,sans-serif" font-size="22">Subsidies + tax exp.</text>
  <circle cx="320" cy="610" r="8" fill="#f59e0b"/>
  <text x="340" y="618" fill="#cbd5e1" font-family="system-ui,sans-serif" font-size="22">Market support</text>
  <circle cx="560" cy="610" r="8" fill="#0ea5e9"/>
  <text x="580" y="618" fill="#cbd5e1" font-family="system-ui,sans-serif" font-size="22">Tariff revenue</text>
  <text x="900" y="140" fill="#22d3ee" font-family="system-ui,sans-serif" font-size="20" font-weight="600">2025 est.</text>
</svg>
